<?xml version="1.0" standalone="no"?><!DOCTYPE svg PUBLIC "-//W3C//DTD SVG 1.1//EN" "http://www.w3.org/Graphics/SVG/1.1/DTD/svg11.dtd"><svg class="icon" width="11px" height="11.00px" viewBox="0 0 1024 1024" version="1.1" xmlns="http://www.w3.org/2000/svg"><path d="M590.971171 236.074669A314.926005 314.926005 0 1 0 905.537671 551.240343 314.926005 314.926005 0 0 0 590.971171 236.074669z m0 472.269172A157.463002 157.463002 0 1 1 748.194504 551.240343 157.463002 157.463002 0 0 1 590.971171 708.343841z" fill="#50B3EA" /><path d="M905.537671 314.80617L716.677936 457.289815a155.785314 155.785314 0 0 1-14.619852 205.037441L868.98804 829.137377a393.417836 393.417836 0 0 0 35.950457-514.331207z" fill="#444444" /><path d="M702.058084 662.327256a157.343168 157.343168 0 0 1-222.653165 0L256.631919 885.100256a472.269172 472.269172 0 0 0 669.038008 0z" fill="#50B3EA" /><path d="M433.268499 551.240343A157.463002 157.463002 0 0 1 590.971171 393.537671V0a551.240343 551.240343 0 0 0-389.822791 940.583795l278.256539-278.256539A157.343168 157.343168 0 0 1 433.268499 551.240343z" fill="#444444" /></svg>