<?xml version="1.0" standalone="no"?><!DOCTYPE svg PUBLIC "-//W3C//DTD SVG 1.1//EN" "http://www.w3.org/Graphics/SVG/1.1/DTD/svg11.dtd"><svg t="1603259467880" class="icon" viewBox="0 0 1061 1024" version="1.1" xmlns="http://www.w3.org/2000/svg" p-id="5568" xmlns:xlink="http://www.w3.org/1999/xlink" width="207.2265625" height="200"><defs><style type="text/css"></style></defs><path d="M338.071384 759.173936h35.40963A35.196319 35.196319 0 0 1 408.0374 794.370255v35.409631a35.196319 35.196319 0 0 1-35.196319 35.196319h-34.769697a35.196319 35.196319 0 0 1-35.196319-35.196319v-35.409631a35.196319 35.196319 0 0 1 35.196319-35.196319z m0-211.817847h35.40963A35.196319 35.196319 0 0 1 408.0374 582.552408V618.601971a35.196319 35.196319 0 0 1-35.196319 35.196319h-34.769697A35.196319 35.196319 0 0 1 302.875065 618.601971v-36.049563a35.196319 35.196319 0 0 1 35.196319-35.196319z m423.635695 106.655512h35.40963a35.196319 35.196319 0 0 1 35.196319 35.40963v35.196319a35.196319 35.196319 0 0 1-35.196319 35.40963h-35.40963a35.196319 35.196319 0 0 1-35.196319-35.40963v-36.049563a35.196319 35.196319 0 0 1 35.196319-35.40963zM338.071384 335.538242h35.40963A35.196319 35.196319 0 0 1 408.0374 370.734561V405.290947a35.196319 35.196319 0 0 1-35.196319 35.196319h-34.769697A35.196319 35.196319 0 0 1 302.875065 405.290947v-34.556386a35.196319 35.196319 0 0 1 35.196319-35.196319z m-176.408217 618.601971h388.226064a17.704815 17.704815 0 0 0 17.704815-17.704815V99.189626a17.704815 17.704815 0 0 0-17.704815-17.491504 21.331102 21.331102 0 0 0-7.892508 1.706489L153.770659 277.304332a17.491504 17.491504 0 0 0-9.812307 15.785016v642.066184a17.704815 17.704815 0 0 0 17.704815 18.131437z m494.241644 0H902.918977a17.704815 17.704815 0 0 0 17.704815-17.704815V539.463581a17.491504 17.491504 0 0 0-8.31913-14.931772l-274.104667-170.648819v581.699164a17.704815 17.704815 0 0 0 17.704816 17.704815z m-582.552409 0V282.423797a70.81926 70.81926 0 0 1 39.035918-63.993308L536.024015 7.465886a70.605949 70.605949 0 0 1 102.17598 63.993307v211.817848a69.966016 69.966016 0 0 1 37.32943 10.878862L957.953221 469.284254a70.81926 70.81926 0 0 1 33.27652 59.940398v424.062317H1026.639371A35.40963 35.40963 0 0 1 1026.639371 1023.892918H38.156083a35.40963 35.40963 0 1 1 0-70.605949z" p-id="5569" fill="#ffffff"></path></svg>