<?xml version="1.0" standalone="no"?><!DOCTYPE svg PUBLIC "-//W3C//DTD SVG 1.1//EN" "http://www.w3.org/Graphics/SVG/1.1/DTD/svg11.dtd"><svg class="icon" width="200px" height="200.00px" viewBox="0 0 1024 1024" version="1.1" xmlns="http://www.w3.org/2000/svg"><path fill="#889aa4" d="M237.662 0.057a237.662 237.662 0 0 0 0 475.324h237.776V237.719A237.719 237.719 0 0 0 237.718 0.057z m786.366 237.662a237.662 237.662 0 0 0-475.437 0V475.38h237.775a237.662 237.662 0 0 0 237.662-237.662zM0 786.309a237.662 237.662 0 0 0 475.38 0V548.649H237.663A237.662 237.662 0 0 0 0 786.31z m786.253-237.661H548.477V786.31a237.719 237.719 0 0 0 475.438 0 237.548 237.548 0 0 0-237.662-237.662z" /></svg>