<?xml version="1.0" standalone="no"?><!DOCTYPE svg PUBLIC "-//W3C//DTD SVG 1.1//EN" "http://www.w3.org/Graphics/SVG/1.1/DTD/svg11.dtd"><svg class="icon" width="11px" height="11.00px" viewBox="0 0 1024 1024" version="1.1" xmlns="http://www.w3.org/2000/svg"><path fill="#889aa4" d="M803.4 925.1H101.5V223.2h701.9v701.9zM152.6 874h599.8V274.2H152.6V874zM96.5 100.4h780.7v51H96.5zM116.5 412.6h666.2V459H116.5z m753.4-312.2h51v824.4h-51zM418.8 631.6h164.4v82.2H418.8zM325.2 731.6c-1.2 0-2.5 0-3.7-0.1-32.4-2-57.1-30-55.1-62.4s30-57.2 62.4-55.1c15.7 1 30.1 8 40.5 19.8 10.4 11.8 15.6 26.9 14.6 42.6-1 15.7-8 30.1-19.8 40.5-10.9 9.5-24.6 14.7-38.9 14.7zM325 637c-8.7 0-17 3.1-23.6 8.9-7.1 6.3-11.4 15-12 24.5-1.2 19.6 13.8 36.6 33.4 37.8 9.5 0.6 18.7-2.6 25.8-8.9s11.4-15 12-24.5c0.6-9.5-2.6-18.7-8.9-25.8-6.3-7.1-15-11.4-24.5-12-0.7 0.1-1.4 0-2.2 0z" /></svg>