<?xml version="1.0" standalone="no"?><!DOCTYPE svg PUBLIC "-//W3C//DTD SVG 1.1//EN" "http://www.w3.org/Graphics/SVG/1.1/DTD/svg11.dtd"><svg class="icon" width="200px" height="196.92px" viewBox="0 0 1040 1024" version="1.1" xmlns="http://www.w3.org/2000/svg"><path fill="#889aa4" d="M953.686 0H86.749A86.96 86.96 0 0 0 0 86.696v115.6a86.96 86.96 0 0 0 86.696 86.696h866.99a86.96 86.96 0 0 0 86.696-86.696v-115.6A86.96 86.96 0 0 0 953.686 0zM169.624 218.003a73.5 73.5 0 1 1 73.501-73.5 73.5 73.5 0 0 1-73.448 73.5z m784.062 149.514H86.749A86.948 86.948 0 0 0 0 454.2v115.6a86.96 86.96 0 0 0 86.696 86.696h866.99a86.96 86.96 0 0 0 86.696-86.696V454.2a86.948 86.948 0 0 0-86.696-86.683z m-784.062 217.99a73.5 73.5 0 1 1 73.501-73.5 73.5 73.5 0 0 1-73.448 73.5z m784.062 149.514H86.749A86.948 86.948 0 0 0 0 821.717v115.587A86.96 86.96 0 0 0 86.696 1024h866.99a86.96 86.96 0 0 0 86.696-86.696V821.717a86.948 86.948 0 0 0-86.696-86.696z m-784.062 217.99a73.5 73.5 0 1 1 73.554-73.514 73.5 73.5 0 0 1-73.5 73.514z" /></svg>