<?xml version="1.0" standalone="no"?><!DOCTYPE svg PUBLIC "-//W3C//DTD SVG 1.1//EN" "http://www.w3.org/Graphics/SVG/1.1/DTD/svg11.dtd"><svg class="icon" width="200px" height="200.00px" viewBox="0 0 1024 1024" version="1.1" xmlns="http://www.w3.org/2000/svg"><path fill="#889aa4" d="M262.4 992c-25.6 0-51.2-25.6-51.2-57.6v-44.8H38.4C12.8 889.6 0 870.4 0 851.2s19.2-38.4 38.4-38.4h172.8V768c0-32 19.2-57.6 51.2-57.6h147.2c25.6 0 51.2 25.6 51.2 57.6v44.8h524.8c19.2 0 38.4 19.2 38.4 38.4s-19.2 38.4-38.4 38.4H460.8v44.8c0 32-19.2 57.6-51.2 57.6H262.4z m128-76.8v-128H281.6v128h108.8z m224-262.4c-25.6 0-51.2-25.6-51.2-57.6v-44.8H38.4C19.2 550.4 0 531.2 0 512s19.2-38.4 38.4-38.4h524.8v-44.8c0-32 19.2-57.6 51.2-57.6h147.2c25.6 0 51.2 25.6 51.2 57.6v44.8h172.8c19.2 0 38.4 19.2 38.4 38.4s-19.2 38.4-38.4 38.4H812.8v44.8c0 32-19.2 57.6-51.2 57.6H614.4z m128-76.8V448H633.6v128h108.8z m-480-262.4c-25.6 0-51.2-25.6-51.2-57.6v-44.8H38.4C19.2 211.2 0 198.4 0 172.8c0-19.2 19.2-38.4 38.4-38.4h172.8V89.6c0-32 19.2-57.6 51.2-57.6h147.2c25.6 0 51.2 25.6 51.2 57.6v44.8h524.8c19.2 0 38.4 19.2 38.4 38.4s-19.2 38.4-38.4 38.4H460.8V256c0 32-19.2 57.6-51.2 57.6H262.4z m128-76.8v-128H281.6v128h108.8z" /></svg>