<?xml version="1.0" standalone="no"?><!DOCTYPE svg PUBLIC "-//W3C//DTD SVG 1.1//EN" "http://www.w3.org/Graphics/SVG/1.1/DTD/svg11.dtd"><svg class="icon" width="11px" height="11.00px" viewBox="0 0 1024 1024" version="1.1" xmlns="http://www.w3.org/2000/svg"><path fill="#889aa4" d="M82.897 242.92h145.967v43.335c0 31.138 25.32 56.506 56.506 56.506h126.883c31.139 0 56.506-25.321 56.506-56.506V242.92h475.276a34.91 34.91 0 0 0 0-69.818H468.713v-43.427c0-31.14-25.321-56.46-56.506-56.46H285.37c-31.139 0-56.506 25.32-56.506 56.46v43.427H82.897a34.91 34.91 0 0 0 0 69.818z m215.785-99.886h100.213v129.909H298.682V143.034z m645.306 343.18H798.022V442.88c0-31.185-25.367-56.553-56.506-56.553H614.633c-31.14 0-56.506 25.368-56.506 56.553v43.38H82.897a34.91 34.91 0 0 0 0 69.819h475.276v43.38c0 31.139 25.367 56.506 56.506 56.506h126.883c31.14 0 56.506-25.367 56.506-56.506v-43.38h145.967a34.91 34.91 0 1 0-0.047-69.865zM728.25 586.1H628.038V456.145H728.25V586.1z m215.738 213.225H468.713v-43.38c0-31.14-25.321-56.506-56.506-56.506H285.37c-31.139 0-56.506 25.367-56.506 56.506v43.38H82.897a34.91 34.91 0 0 0 0 69.818h145.967v43.38c0 31.186 25.32 56.553 56.506 56.553h126.883c31.139 0 56.506-25.367 56.506-56.552v-43.38h475.276a34.91 34.91 0 1 0-0.047-69.819z m-545.093 99.887H298.682V769.257h100.213v129.955z" /></svg>