<?xml version="1.0" standalone="no"?><!DOCTYPE svg PUBLIC "-//W3C//DTD SVG 1.1//EN" "http://www.w3.org/Graphics/SVG/1.1/DTD/svg11.dtd"><svg class="icon" width="11px" height="11.00px" viewBox="0 0 1024 1024" version="1.1" xmlns="http://www.w3.org/2000/svg"><path fill="#889aa4" d="M877.7 113.6H146.3c-45.5 0-82.5 37-82.5 82.5V848c0 45.5 37 82.5 82.5 82.5h731.5c45.5 0 82.5-37 82.5-82.5V196.1c-0.1-45.5-37.1-82.5-82.6-82.5zM125.4 362h773.2v485.9c0 11.5-9.4 20.9-20.9 20.9H146.3c-11.5 0-20.8-9.4-20.9-20.9V362z m20.9-186.8h731.5c11.5 0 20.9 9.4 20.9 20.9v104.3H125.4V196.1c0-11.5 9.4-20.9 20.9-20.9zM631.3 739.3c0 7.9 3 15.3 8.6 20.9l0.1 0.1c5.6 5.6 13 8.6 20.9 8.6 7.9 0 15.3-3.1 20.9-8.7l124.2-124c11.5-11.5 11.5-30.3 0-41.8L681.8 470.2c-5.5-5.4-12.8-8.3-20.6-8.3-8.1 0-15.7 3.2-21.3 9-11.1 11.5-11.1 29.6 0.1 41.2l103.1 103.1L640 718.4c-5.6 5.6-8.7 13-8.7 20.9z m-177.3 78l0.2 0.1c2.7 0.8 5.4 1.2 8.2 1.2 13.1 0 24.7-8.8 28.4-21.4L590 449.7c2.2-7.6 1.3-15.5-2.5-22.4-3.8-6.9-10.1-11.9-17.6-14.1h-0.1c-2.8-0.8-5.6-1.3-8.5-1.3-12.8 0-24.3 8.6-28 20.8-0.1 0.2-0.1 0.5-0.2 0.7l-99.3 347.4c-2.2 7.6-1.3 15.5 2.5 22.4 3.9 6.9 10.2 12 17.7 14.1z m-111.9-57c5.6 5.6 13 8.6 20.9 8.6 7.9 0 15.3-3.1 21-8.7 11.5-11.5 11.5-30.3 0-41.8L280.8 615.3 384 512c11.3-11.7 11-30.5-0.7-41.8-5.5-5.4-12.8-8.3-20.6-8.3s-15 3-20.6 8.4L218 594.3c-11.5 11.5-11.5 30.3 0 41.8l124.1 124.2z" /></svg>