<?xml version="1.0" standalone="no"?><!DOCTYPE svg PUBLIC "-//W3C//DTD SVG 1.1//EN" "http://www.w3.org/Graphics/SVG/1.1/DTD/svg11.dtd"><svg class="icon" width="11px" height="11.00px" viewBox="0 0 1024 1024" version="1.1" xmlns="http://www.w3.org/2000/svg"><path fill="#889aa4" d="M727.3 258.6C685.5 178.7 602.5 128 511.4 128c-113.1 0-208.5 76.4-235 184.7-79.5 11.3-141 80-141 162.5 0 90.5 73.6 164.2 164.2 164.2v-57.9c-58.6 0-106.2-47.7-106.2-106.2 0-58.3 47.4-105.9 107.2-106.2h25l3.7-24.7c13.5-91.7 90.2-158.3 182.2-158.3 73.9 0 140.8 43.8 170.3 111.7l7.2 16.6 18.1 0.8c69 2.9 123 59.1 123 128.1 0 61.9-44.1 115-104.9 126.2l10.5 57C824 610 888 532.9 888 443c0-94.1-69.2-171.9-160.7-184.4zM270.3 644.2l-92 92 92.9 92.9 41-41-22.5-22.5h47.8c48.3 0 87.5-39.3 87.5-87.5V520.9h-58v157.3c0 16.3-13.3 29.6-29.6 29.6h-48.6l22.5-22.5-41-41.1zM598 520.9v157.3c0 48.3 39.2 87.5 87.5 87.5h47.8l-22.5 22.5 41 41 92.9-92.9-92-92-41 41 22.5 22.5h-48.6c-16.3 0-29.6-13.3-29.6-29.6V520.9h-58z m-115.5-57.7V780l-22.2-22.2-41 40.9 92.1 92.1 92.8-92.9-40.9-40.9-22.9 22.8V463.2z" /></svg>