<?xml version="1.0" standalone="no"?><!DOCTYPE svg PUBLIC "-//W3C//DTD SVG 1.1//EN" "http://www.w3.org/Graphics/SVG/1.1/DTD/svg11.dtd"><svg class="icon" width="200px" height="200.00px" viewBox="0 0 1024 1024" version="1.1" xmlns="http://www.w3.org/2000/svg"><path fill="#889aa4" d="M446.68 513.705h136.08V1024H446.68zM532.41 666.793h115.667v136.079H532.41z m0 176.903h149.687v136.078H532.41z m-20.412-258.55a290.528 290.528 0 0 1-292.57-292.57A290.528 290.528 0 0 1 511.999 0.008a290.528 290.528 0 0 1 292.57 292.57 290.528 290.528 0 0 1-292.57 292.57z m0-449.06a153.769 153.769 0 0 0-156.49 156.49 153.769 153.769 0 0 0 156.49 156.491 153.769 153.769 0 0 0 156.49-156.49 153.769 153.769 0 0 0-156.49-156.49z" /></svg>