<?xml version="1.0" standalone="no"?><!DOCTYPE svg PUBLIC "-//W3C//DTD SVG 1.1//EN" "http://www.w3.org/Graphics/SVG/1.1/DTD/svg11.dtd"><svg class="icon" width="200px" height="200.00px" viewBox="0 0 1024 1024" version="1.1" xmlns="http://www.w3.org/2000/svg"><path fill="#889aa4" d="M928 832h-32V384c0-70.4-57.6-128-128-128H576v544c0 17.92-14.08 32-32 32s-32-14.08-32-32V192c0-70.4-57.6-128-128-128H192c-70.4 0-128 57.6-128 128v640H32c-17.92 0-32 14.08-32 32s14.08 32 32 32h896c17.92 0 32-14.08 32-32s-14.08-32-32-32zM352 704H224c-17.92 0-32-14.08-32-32s14.08-32 32-32h128c17.92 0 32 14.08 32 32s-14.08 32-32 32z m0-192H224c-17.92 0-32-14.08-32-32s14.08-32 32-32h128c17.92 0 32 14.08 32 32s-14.08 32-32 32z m0-192H224c-17.92 0-32-14.08-32-32s14.08-32 32-32h128c17.92 0 32 14.08 32 32s-14.08 32-32 32z m448 384H672c-17.92 0-32-14.08-32-32s14.08-32 32-32h128c17.92 0 32 14.08 32 32s-14.08 32-32 32z m0-192H672c-17.92 0-32-14.08-32-32s14.08-32 32-32h128c17.92 0 32 14.08 32 32s-14.08 32-32 32z" /></svg>