<?xml version="1.0" standalone="no"?><!DOCTYPE svg PUBLIC "-//W3C//DTD SVG 1.1//EN" "http://www.w3.org/Graphics/SVG/1.1/DTD/svg11.dtd"><svg class="icon" width="200px" height="200.00px" viewBox="0 0 1024 1024" version="1.1" xmlns="http://www.w3.org/2000/svg"><path fill="#889aa4" d="M794.75 444.122h-42.955V293.727c0-131.089-105.3-236.355-236.355-236.355s-236.355 105.3-236.355 236.355v150.395H236.13c-47.278 0-85.965 38.662-85.965 85.965v343.824c0 47.278 38.662 85.965 85.965 85.965h558.663c47.278 0 85.965-38.662 85.965-85.965V530.087c0-47.278-38.662-85.965-85.965-85.965zM515.429 830.883c-36.521 0-64.462-27.94-64.462-64.462 0-27.94 17.193-51.58 42.955-60.148v-68.759c0-12.881 8.594-21.515 21.515-21.515s21.515 8.594 21.515 21.515v68.759c23.632 8.594 42.955 32.21 42.955 60.148 0 36.521-27.94 64.462-64.462 64.462zM322.043 444.122V293.727c0-107.41 85.965-193.388 193.388-193.388s193.388 85.965 193.388 193.388v150.395H322.071z" /></svg>