<?xml version="1.0" standalone="no"?><!DOCTYPE svg PUBLIC "-//W3C//DTD SVG 1.1//EN" "http://www.w3.org/Graphics/SVG/1.1/DTD/svg11.dtd"><svg class="icon" width="200px" height="200.00px" viewBox="0 0 1024 1024" version="1.1" xmlns="http://www.w3.org/2000/svg"><path fill="#889aa4" d="M339.84 467.84h-192a119.68 119.68 0 0 1-118.4-119.68v-192a119.68 119.68 0 0 1 119.68-118.4h192a120.32 120.32 0 0 1 119.04 119.68v192a120.32 120.32 0 0 1-120.32 118.4z m-192-350.08a39.68 39.68 0 0 0-39.68 39.68v192a39.68 39.68 0 0 0 39.68 39.68h192a40.32 40.32 0 0 0 40.32-39.68v-192a40.32 40.32 0 0 0-40.32-39.68z m192 868.48h-192a119.68 119.68 0 0 1-118.4-119.68v-192a119.68 119.68 0 0 1 119.68-118.4h192a120.32 120.32 0 0 1 120.32 119.68v192a120.32 120.32 0 0 1-121.6 118.4z m-192-350.08a39.68 39.68 0 0 0-39.68 39.68v192a39.68 39.68 0 0 0 39.68 39.68h192a40.32 40.32 0 0 0 40.32-39.68v-192a40.32 40.32 0 0 0-40.32-39.68z m726.4-168.32h-192A120.32 120.32 0 0 1 563.2 348.16v-192a120.32 120.32 0 0 1 120.32-118.4h192A119.68 119.68 0 0 1 995.2 157.44v192a119.68 119.68 0 0 1-120.96 118.4z m-192-350.08a39.68 39.68 0 0 0-39.68 39.68v192a39.68 39.68 0 0 0 39.68 39.68h192a39.68 39.68 0 0 0 39.68-39.68v-192a39.68 39.68 0 0 0-39.68-39.68z m282.24 544H616.96a30.08 30.08 0 0 1 0-60.16h347.52a30.08 30.08 0 0 1 0 60.16z m0 128H616.96a30.08 30.08 0 0 1 0-60.16h347.52a30.08 30.08 0 0 1 0 60.16z m0 127.36H616.96a30.08 30.08 0 0 1 0-60.16h347.52a30.08 30.08 0 0 1 0 60.16zM899.2 695.04a30.08 30.08 0 0 1-30.08-30.08v-64a30.08 30.08 0 1 1 60.16 0v64a30.08 30.08 0 0 1-30.08 30.08z m-211.84 128a30.08 30.08 0 0 1-30.08-30.08v-64a30.08 30.08 0 0 1 60.16 0v64a30.08 30.08 0 0 1-30.08 30.08zM899.2 950.4a30.08 30.08 0 0 1-30.08-30.08v-64a30.08 30.08 0 1 1 60.16 0v64a30.08 30.08 0 0 1-30.08 30.08z" /></svg>