<?xml version="1.0" standalone="no"?><!DOCTYPE svg PUBLIC "-//W3C//DTD SVG 1.1//EN" "http://www.w3.org/Graphics/SVG/1.1/DTD/svg11.dtd"><svg class="icon" width="200px" height="200.00px" viewBox="0 0 1024 1024" version="1.1" xmlns="http://www.w3.org/2000/svg"><path fill="#889aa4" d="M324.40313 651.776258a46.591968 46.591968 0 0 0-2.303998 93.183935h377.599738a46.591968 46.591968 0 0 0 2.303998-93.183935h-377.599738z m0-232.703839A46.591968 46.591968 0 0 0 322.355131 512.000355H699.69987a46.591968 46.591968 0 0 0 2.303998-92.927936h-377.599738zM813.619791 1024H210.483209A127.999911 127.999911 0 0 1 89.651293 891.136092v-691.199521c0-73.726949 39.167973-121.086916 105.727927-121.086916h35.327975V166.400595a36.095975 36.095975 0 0 0 35.071976 33.279977h486.399662a41.215971 41.215971 0 0 0 40.191973-33.279977V78.849655h35.071975c66.559954 0 105.727927 47.359967 105.727927 120.831917v691.19952A127.999911 127.999911 0 0 1 813.618791 1024zM324.65913 0.00071H699.69987a46.591968 46.591968 0 0 1 46.847967 46.336968v46.847967a46.591968 46.591968 0 0 1-46.847967 46.335968H324.40313A46.591968 46.591968 0 0 1 277.300163 93.185645V46.337678A46.591968 46.591968 0 0 1 324.14713 0.00071z" /></svg>