<?xml version="1.0" standalone="no"?><!DOCTYPE svg PUBLIC "-//W3C//DTD SVG 1.1//EN" "http://www.w3.org/Graphics/SVG/1.1/DTD/svg11.dtd"><svg class="icon" width="200px" height="200.00px" viewBox="0 0 1024 1024" version="1.1" xmlns="http://www.w3.org/2000/svg"><path fill="#889aa4" d="M868.26 652.388a31.98 31.98 0 0 1-31.981-31.98V388.232a31.98 31.98 0 0 1 31.98-31.98 31.98 31.98 0 0 1 31.98 31.98v232.176a31.98 31.98 0 0 1-31.98 31.98zM584.274 903.753a31.98 31.98 0 0 1-27.503-15.99 32.62 32.62 0 0 1 11.513-44.133l205.952-120.246a31.98 31.98 0 0 1 43.493 11.513 32.62 32.62 0 0 1-11.512 44.133L600.265 899.275a37.737 37.737 0 0 1-15.99 4.478z m-141.352 0a35.178 35.178 0 0 1-15.99-4.478L217.783 778.39a31.98 31.98 0 0 1 31.98-55.006l209.15 120.246a32.62 32.62 0 0 1 11.513 44.133 31.98 31.98 0 0 1-27.503 15.99zM162.777 663.9a31.98 31.98 0 0 1-31.98-31.98V388.232a31.98 31.98 0 0 1 31.98-31.98 31.98 31.98 0 0 1 31.98 31.98v243.69a31.98 31.98 0 0 1-31.98 31.98z m69.716-365.213a31.98 31.98 0 0 1-27.503-15.99 32.62 32.62 0 0 1 11.513-44.133L416.7 123.436a31.98 31.98 0 0 1 31.98 55.646L248.483 294.21a27.503 27.503 0 0 1-15.99 4.477z m559.014 0a35.178 35.178 0 0 1-15.99-4.477L570.844 174.605a31.98 31.98 0 1 1 32.62-55.006l204.033 119.606a31.98 31.98 0 0 1-15.99 59.483zM512 226.413a113.21 113.21 0 1 1 114.489-112.57A112.57 112.57 0 0 1 512 226.412z m0-161.82a49.25 49.25 0 1 0 48.61 49.25A48.61 48.61 0 0 0 512 64.592z m0 959.405a113.21 113.21 0 1 1 112.57-113.21A113.21 113.21 0 0 1 512 1023.998z m0-161.82a49.25 49.25 0 1 0 48.61 48.61 48.61 48.61 0 0 0-48.61-48.61z m349.223-441.966a113.21 113.21 0 1 1 113.21-113.21 112.57 112.57 0 0 1-113.21 113.21z m0-161.82a48.61 48.61 0 0 0-48.61 48.61 49.25 49.25 0 1 0 48.61-50.528z m0 567.329a113.21 113.21 0 1 1 113.21-112.57 112.57 112.57 0 0 1-113.21 112.57z m0-161.82a49.25 49.25 0 1 0 49.25 49.25 48.61 48.61 0 0 0-49.25-49.25zM162.777 420.212a113.21 113.21 0 1 1 112.57-113.21 113.21 113.21 0 0 1-112.57 113.21z m0-163.738a48.61 48.61 0 0 0-49.25 48.61 49.25 49.25 0 1 0 97.86 0 48.61 48.61 0 0 0-48.61-48.61z m0 569.247a113.21 113.21 0 1 1 112.57-112.57 112.57 112.57 0 0 1-112.57 112.57z m0-161.82a49.25 49.25 0 1 0 48.61 49.25 48.61 48.61 0 0 0-48.61-49.25z m485.459 25.584a24.305 24.305 0 0 1-24.305-24.304v-33.9a44.133 44.133 0 0 0-44.133-44.132H444.202a44.133 44.133 0 0 0-44.133 44.133v33.899a24.305 24.305 0 1 1-47.97 0v-33.9a92.103 92.103 0 0 1 92.103-92.102h135.596a92.103 92.103 0 0 1 92.103 92.103v33.899a24.305 24.305 0 0 1-23.665 24.304zM512 519.351a92.103 92.103 0 1 1 92.103-92.103A92.743 92.743 0 0 1 512 519.351z m0-134.956a44.133 44.133 0 1 0 44.133 44.132A44.133 44.133 0 0 0 512 384.395z" /></svg>