<?xml version="1.0" standalone="no"?><!DOCTYPE svg PUBLIC "-//W3C//DTD SVG 1.1//EN" "http://www.w3.org/Graphics/SVG/1.1/DTD/svg11.dtd"><svg class="icon" width="11px" height="11.00px" viewBox="0 0 1024 1024" version="1.1" xmlns="http://www.w3.org/2000/svg"><path fill="#889aa4" d="M128 966.4h108.8c38.4 0 64-25.6 64-64V614.4c0-38.4-25.6-64-64-64H128c-38.4 0-64 25.6-64 64v288c0 32 25.6 64 64 64z m595.2-416v352c0 38.4 25.6 64 64 64H896c38.4 0 64-25.6 64-64V550.4c0-38.4-25.6-64-64-64h-108.8c-38.4 0-64 25.6-64 64z m-294.4 416h172.8c38.4 0 64-25.6 64-64V371.2c0-38.4-25.6-64-64-64H428.8c-38.4 0-64 25.6-64 64v531.2c0 32 25.6 64 64 64z m25.6-512H576V512H454.4v-57.6z m0 121.6H576v57.6H454.4V576z m0 121.6H576v57.6H454.4v-57.6z m0 115.2H576v57.6H454.4v-57.6z m-179.2-384L185.6 518.4 96 428.8h57.6V128h716.8v236.8h57.6l-89.6 89.6-89.6-89.6h57.6V185.6H211.2v236.8h64z"  /></svg>