<?xml version="1.0" standalone="no"?><!DOCTYPE svg PUBLIC "-//W3C//DTD SVG 1.1//EN" "http://www.w3.org/Graphics/SVG/1.1/DTD/svg11.dtd"><svg class="icon" width="200px" height="200.00px" viewBox="0 0 1024 1024" version="1.1" xmlns="http://www.w3.org/2000/svg"><path fill="#889aa4" d="M352.644 0c-67.419 0-127.438 62.167-127.438 128.033l-36.765 0.925c-67.386 0-122.385 61.225-122.385 127.108v639.901c0 65.866 60.02 128.033 127.422 128.033h477.73c67.434 0 127.438-62.167 127.438-128.033h31.876c67.419 0 127.422-62.167 127.422-128.033V281.5a66.065 66.065 0 0 0-16.285-43.438L754.449 23.602A66.065 66.065 0 0 0 704.85 0.974L352.644 0zM193.478 959.983c-33.429 0-63.703-31.347-63.703-64.016v-639.9c0-47.55 38.978-64.017 95.563-64.017v576c0 65.899 60.003 128.05 127.438 128.05 0 0 345.27-0.43 382.415-0.43-0.116 38.813-25.37 64.313-63.984 64.313H193.478zM448.206 639.29a31.959 31.959 0 0 1-31.86-32.008c0-17.673 14.254-32.009 31.86-32.042h286.572c17.606 0.033 31.86 14.37 31.876 32.042-0.017 17.672-14.27 31.991-31.876 32.008H448.223z m-3.468 134.937a31.959 31.959 0 0 1-31.843-32.009c0-17.672 14.253-32.008 31.843-32.024h286.588c17.59 0 31.86 14.336 31.876 32.024-0.017 17.673-14.286 31.992-31.876 32.009H444.738z m3.468-261.698a31.942 31.942 0 0 1-31.86-32.009c0-17.672 14.27-31.991 31.86-32.008h286.572c17.59 0 31.86 14.336 31.876 32.008-0.033 17.673-14.287 31.992-31.876 32.009H448.223z m286.572-320.48v-81.39a16.516 16.516 0 0 1 29.2-10.571l107.487 128.875a16.516 16.516 0 0 1-12.684 27.087h-60.284c-33.974 0-63.72-30.803-63.72-64z" /></svg>