<?xml version="1.0" standalone="no"?><!DOCTYPE svg PUBLIC "-//W3C//DTD SVG 1.1//EN" "http://www.w3.org/Graphics/SVG/1.1/DTD/svg11.dtd"><svg class="icon" width="200px" height="189.63px" viewBox="0 0 1080 1024" version="1.1" xmlns="http://www.w3.org/2000/svg"><path fill="#889aa4" d="M871.765 943.616c17.238 0 31.915 12.516 34.418 32.654v5.063c0 17.636-14.791 32.711-31.915 32.711h-652.97a32.882 32.882 0 0 1-31.915-32.71v-5.064c0-17.578 14.677-32.654 31.858-32.654h135.054a32.882 32.882 0 0 0 31.858-32.711v-60.36c0-12.572 9.842-22.641 19.683-22.641H682.78c9.785 0 19.627 10.07 19.627 22.642v60.359c0 17.635 14.734 32.711 31.915 32.711h137.443zM986.17 5.063c39.196 0 68.608 30.151 66.105 67.925v641.309c0 37.717-29.355 67.925-66.105 67.925H94.606c-36.75 0-66.162-30.15-66.162-67.925V93.07c0-47.786 39.197-87.95 85.732-87.95h871.993zM530.603 573.44V409.998h-159.29a49.778 49.778 0 0 0-48.924 50.29V623.73h159.175a49.778 49.778 0 0 0 49.039-50.29z m0-181.077V228.92a49.778 49.778 0 0 0-49.039-50.29H322.39v163.442c0 27.648 22.016 50.29 48.925 50.29h159.289zM758.386 623.73V460.288a49.778 49.778 0 0 0-48.982-50.29H550.116V573.44c0 27.705 22.016 50.29 48.98 50.29H758.33z m0-281.6V178.63H599.154a49.778 49.778 0 0 0-48.982 50.29v163.442h159.232a49.778 49.778 0 0 0 48.925-50.29z m-172.317-90.454c0-1.65 1.707-3.3 3.3-3.3h77.824v77.825c0 1.65-1.707 3.3-3.3 3.3H586.07v-77.768z m77.824 219.762c1.65 0 3.3 1.707 3.3 3.3v77.824h-77.824a3.584 3.584 0 0 1-3.3-3.3v-77.824h77.824z m-250.197 3.3c0-1.65 1.707-3.3 3.3-3.3h77.824v77.824c0 1.65-1.707 3.3-3.3 3.3h-77.824v-77.824z m77.255-226.361c3.3 0 4.95 1.707 3.3 3.356V329.5h-77.255c-1.65 0-3.3-1.65-3.3-3.3v-77.823h77.255z" /></svg>