<?xml version="1.0" standalone="no"?><!DOCTYPE svg PUBLIC "-//W3C//DTD SVG 1.1//EN" "http://www.w3.org/Graphics/SVG/1.1/DTD/svg11.dtd"><svg class="icon" width="200px" height="200.00px" viewBox="0 0 1024 1024" version="1.1" xmlns="http://www.w3.org/2000/svg"><path fill="#889aa4" d="M509.606 443.86c34.419 0 64.349 29.83 64.349 64.349 0 34.42-29.83 64.35-64.35 64.35-34.419 0-64.349-29.831-64.349-64.35s27.536-64.35 64.35-64.35z m-4.59 578.843c135.483 0 264.181-52.876 360.655-149.35 98.769-98.768 151.645-225.072 151.645-362.95 0-135.482-52.876-264.18-149.35-360.654C771.392 53.375 642.793 0.499 507.31 0.499 263.781-1.796 57.066 170.5 6.485 404.75h80.411C128.2 234.75 270.666 103.857 442.962 78.616l9.178-2.295v29.83h112.537v-25.24l9.178 2.294c183.77 29.83 328.53 174.59 358.36 358.36l2.295 9.179h-29.83V563.28h29.83l-2.295 9.178c-13.768 91.885-55.17 174.591-119.42 241.235-64.35 64.25-147.055 107.947-238.94 121.715l-9.178 2.294v-34.42H452.14v36.715l-9.178-2.295c-119.42-20.651-227.367-87.295-294.011-183.769H57.066c91.885 165.412 264.181 268.77 447.95 268.77zM486.56 133.687h45.992v89.59H486.56v-89.59z m0 96.474h45.992v89.59H486.56v-89.59z m0 96.473h45.992v89.59H486.56v-89.59z m303.289 149.35h87.295v45.893H789.85v-45.893z m-96.474 0h89.59v45.893h-89.59v-45.893zM596.9 478.28h89.59v45.892h-89.59V478.28zM486.56 583.931h45.992v89.59H486.56v-89.59z m0 96.474h45.992v89.59H486.56v-89.59z m0 98.769h45.992v89.59H486.56v-89.59z m0 0M265.178 592.71a17.858 17.858 0 1 0 35.717 0 17.858 17.858 0 1 0-35.717 0zM331.723 677.911a23.844 23.844 0 1 0 47.688 0 23.844 23.844 0 1 0-47.688 0zM354.469 802.818a17.46 17.46 0 1 0 34.918 0 17.46 17.46 0 1 0-34.918 0zM230.36 739.666a23.445 23.445 0 1 0 46.89 0 23.445 23.445 0 1 0-46.89 0zM621.942 234.75a23.844 23.844 0 1 0 47.689 0 23.844 23.844 0 1 0-47.689 0zM632.418 354.27a39.507 39.507 0 1 0 79.015 0 39.507 39.507 0 1 0-79.015 0zM757.924 277.65a18.058 18.058 0 1 0 36.115 0 18.058 18.058 0 1 0-36.115 0zM770.394 386.195a23.445 23.445 0 1 0 46.89 0 23.445 23.445 0 1 0-46.89 0z" /></svg>