<?xml version="1.0" standalone="no"?><!DOCTYPE svg PUBLIC "-//W3C//DTD SVG 1.1//EN" "http://www.w3.org/Graphics/SVG/1.1/DTD/svg11.dtd"><svg class="icon" width="200px" height="200.00px" viewBox="0 0 1024 1024" version="1.1" xmlns="http://www.w3.org/2000/svg"><path fill="#889aa4" d="M748.544 919.552c-124.416 0-225.28-100.864-225.28-225.28s100.864-225.28 225.28-225.28 225.28 100.864 225.28 225.28-100.864 225.28-225.28 225.28z m0-46.592c98.816 0 179.2-80.384 179.2-179.2s-80.384-179.2-179.2-179.2-179.2 80.384-179.2 179.2 79.872 179.2 179.2 179.2zM348.16 302.592H186.88c-19.456 0-32.256 12.8-32.256 32.256s12.8 32.256 32.256 32.256h161.28c19.456 0 32.256-12.8 32.256-32.256s-12.8-32.256-32.256-32.256z m0 129.024H186.88c-19.456 0-32.256 12.8-32.256 32.256s12.8 32.256 32.256 32.256h161.28c19.456 0 32.256-12.8 32.256-32.256s-12.8-32.256-32.256-32.256z m0 128.512H186.88c-19.456 0-32.256 12.8-32.256 32.256s12.8 32.256 32.256 32.256h161.28c19.456 0 32.256-12.8 32.256-32.256 0-18.944-12.8-32.256-32.256-32.256zM566.272 860.672h-91.136V314.88h303.616v121.344c0 18.432 12.288 30.208 30.208 30.208 18.432 0 30.208-12.288 30.208-30.208V314.88c0-33.28-27.136-60.928-63.488-60.928H475.136v-90.624c0-33.28-27.136-60.928-57.856-60.928H138.24c-30.208 0-57.856 27.136-57.856 60.928v697.856c-18.432 0-30.208 12.288-30.208 30.208 0 18.432 12.288 30.208 30.208 30.208H565.76c18.432 0 30.208-12.288 30.208-30.208s-11.776-30.72-29.696-30.72z m-424.96 0l-3.072-697.344h276.48v697.856l-273.408-0.512zM642.048 720.896c-21.504-21.504-30.72-52.736-24.576-82.432 1.536-6.656 6.144-12.8 12.8-14.336 6.656-2.048 13.824 0 18.944 4.608l22.528 22.528c7.68 7.68 20.992 7.68 28.672 0s7.68-20.992 0-28.672l-22.528-22.528c-4.608-4.608-6.656-12.288-4.608-18.944 2.048-6.656 7.68-11.776 14.336-12.8 30.208-6.144 60.928 3.072 82.432 24.576 12.288 12.288 20.992 27.648 24.576 44.544 3.584 15.872 3.072 32.768-2.56 48.64l67.072 67.072c15.872 15.872 15.872 40.96 0 56.832s-40.96 15.872-56.832 0l-67.072-67.072c-15.36 5.12-32.256 6.144-48.64 2.56s-32.256-11.776-44.544-24.576z m-5.12-76.288c-4.096 22.528 3.584 46.08 19.456 62.464 9.728 9.728 21.504 15.872 34.816 18.944 12.8 3.072 26.112 2.048 38.4-2.56 6.656-2.56 14.336-0.512 19.968 4.096l67.584 67.584c7.68 7.68 20.992 7.68 28.672 0s7.68-20.992 0-28.672L778.24 698.88c-5.12-5.12-6.656-12.8-4.096-19.968 4.096-12.8 4.608-25.6 2.56-38.4-3.072-12.8-9.728-25.088-18.944-34.816-16.384-16.384-39.424-23.552-62.464-19.456l21.504 21.504c15.872 15.872 15.872 40.96 0 56.832s-40.96 15.872-56.832 0c-1.536 1.024-23.04-19.968-23.04-19.968z" /></svg>