<svg t="1600848414507" class="icon" viewBox="0 0 1024 1024" version="1.1" xmlns="http://www.w3.org/2000/svg" p-id="2374" width="200" height="200"><path d="M894.901 141.03c-9.17 0.316-18.141 0.434-26.953 0.434-231.364 0-333.335-100.215-334.209-101.149l-23.059-23.87-23.227 23.87c-0.909 1.051-100.854 101.149-334.165 101.149-8.81 0-17.748-0.118-26.997-0.433l-32.464-1.043v454.485c0 119.007 42.036 292.576 405.416 425.384L510.6 1024l11.349-4.143C885.333 887.049 927.37 713.48 927.37 594.473V139.988l-32.47 1.043zM474.878 712.049L265.496 525.493l55.61-45.262 111.336 82.58s153.688-159.928 302.14-234.6l21.195 23.983s-185.523 154.621-280.9 359.854z m0 0" p-id="2375"></path></svg>
