<?xml version="1.0" standalone="no"?><!DOCTYPE svg PUBLIC "-//W3C//DTD SVG 1.1//EN" "http://www.w3.org/Graphics/SVG/1.1/DTD/svg11.dtd"><svg class="icon" width="200px" height="200.00px" viewBox="0 0 1024 1024" version="1.1" xmlns="http://www.w3.org/2000/svg"><path fill="#889aa4" d="M630.34 771.96l10.46 16.02H659l18.97-0.52 114.39-183.03 5.12-8.5V211.07c0-74.3-55.46-137.31-126.24-143.43-38.62-3.33-77.31 9.71-105.83 35.87-28.53 26.17-44.9 63.37-44.9 102.08v381l0.17 9.92 109.66 175.45z m28.65-77.01l-41.06-65.67h82.1l-41.04 65.67zM609.44 151.5c15.32-14.05 35.29-20.89 56.19-18.97 37.43 3.23 66.73 37.73 66.73 78.54v354.65H585.64V205.59c0-20.81 8.45-40.02 23.8-54.09zM286.31 470.39h129.07c17.55 0 31.78-14.23 31.78-31.78s-14.23-31.78-31.78-31.78H286.31c-17.55 0-31.78 14.23-31.78 31.78 0 17.56 14.23 31.78 31.78 31.78z m0 148.29h171.44c17.55 0 31.78-14.23 31.78-31.78s-14.23-31.78-31.78-31.78H286.31c-17.55 0-31.78 14.23-31.78 31.78 0 17.56 14.23 31.78 31.78 31.78z m0 148.3h235c17.55 0 31.78-14.23 31.78-31.78s-14.23-31.78-31.78-31.78h-235c-17.55 0-31.78 14.23-31.78 31.78s14.23 31.78 31.78 31.78zM872.28 191.71h-23.85c-17.99 0-32.56 14.57-32.56 32.56s14.57 32.56 32.56 32.56h23.85c5.08 0 9.2 4.12 9.2 9.2V882.8c0 5.08-4.12 9.2-9.2 9.2H151.91c-5.07 0-9.19-4.12-9.19-9.2V266.03c0-5.08 4.12-9.2 9.19-9.2h305.84c17.99 0 32.56-14.57 32.56-32.56s-14.57-32.56-32.56-32.56H151.91c-40.98 0-74.31 33.35-74.31 74.32V882.8c0 40.98 33.34 74.32 74.31 74.32h720.36c40.98 0 74.32-33.35 74.32-74.32V266.03c0.01-40.98-33.34-74.32-74.31-74.32z" /></svg>