<?xml version="1.0" standalone="no"?><!DOCTYPE svg PUBLIC "-//W3C//DTD SVG 1.1//EN" "http://www.w3.org/Graphics/SVG/1.1/DTD/svg11.dtd"><svg class="icon" width="200px" height="200.00px" viewBox="0 0 1024 1024" version="1.1" xmlns="http://www.w3.org/2000/svg"><path fill="#889aa4" d="M785.5 273.5L665.2 153.2C649 137 627.2 128 604.6 128H298.7c-46.9 0-85.3 38.4-85.3 85.3v597.3c0 46.9 38.4 85.3 85.3 85.3h426.7c46.9 0 85.3-38.4 85.3-85.3V334.1c0-22.6-9-44.4-25.2-60.6zM469.3 468.7c0-23.5 19.2-42.7 42.7-42.7 23.5 0 42.7 19.2 42.7 42.7v128c0 23.5-19.2 42.7-42.7 42.7-23.5 0-42.7-19.2-42.7-42.7v-128z m-170.6 42.7c0-23.5 19.2-42.7 42.7-42.7 23.5 0 42.7 19.2 42.7 42.7v85.3c0 23.5-19.2 42.7-42.7 42.7-23.5 0-42.7-19.2-42.7-42.7v-85.3z m373.3 256H352c-29.3 0-53.3-19.2-53.3-42.7 0-23.5 24-42.7 53.3-42.7h320c29.3 0 53.3 19.2 53.3 42.7 0 23.5-24 42.7-53.3 42.7z m53.3-170.7c0 23.5-19.2 42.7-42.7 42.7-23.5 0-42.7-19.2-42.7-42.7v-256c0-23.5 19.2-42.7 42.7-42.7 23.5 0 42.7 19.2 42.7 42.7v256z" /></svg>