<?xml version="1.0" standalone="no"?><!DOCTYPE svg PUBLIC "-//W3C//DTD SVG 1.1//EN" "http://www.w3.org/Graphics/SVG/1.1/DTD/svg11.dtd"><svg class="icon" width="200px" height="200.00px" viewBox="0 0 1024 1024" version="1.1" xmlns="http://www.w3.org/2000/svg"><path fill="#889aa4" d="M380.53 98.4h262.92q18.54 0 18.54 18.54v262.92q0 18.54-18.54 18.54H380.53q-18.54 0-18.54-18.54V116.94q0-18.54 18.54-18.54zM116.55 728.47h162.92q18.54 0 18.54 18.54v162.92q0 18.54-18.54 18.54H116.55q-18.54 0-18.54-18.54V747.01q0-18.54 18.54-18.54zM431.55 728.47h162.92q18.54 0 18.54 18.54v162.92q0 18.54-18.54 18.54H431.55q-18.54 0-18.54-18.54V747.01q0-18.54 18.54-18.54zM746.55 728.47h162.92q18.54 0 18.54 18.54v162.92q0 18.54-18.54 18.54H746.55q-18.54 0-18.54-18.54V747.01q0-18.54 18.54-18.54zM202.34 744.08h-20V564.72a30.28 30.28 0 0 1 30.25-30.25h600a30.28 30.28 0 0 1 30.24 30.25v177.83h-20V564.72a10.26 10.26 0 0 0-10.24-10.25h-600a10.26 10.26 0 0 0-10.25 10.25zM502.01 395.57h20v343.91h-20z" /></svg>